<svg width="144" height="80" viewBox="0 0 144 80" fill="none" xmlns="http://www.w3.org/2000/svg">
<path d="M32.8131 45.4919C32.8131 46.586 32.4205 47.5226 31.6368 48.3017C30.8564 49.0777 29.9192 49.4648 28.822 49.4648H25.8263V41.5238H28.822C29.9176 41.5238 30.8564 41.9142 31.6368 42.6933C32.4205 43.4693 32.8131 44.4011 32.8131 45.4919ZM31.8178 45.4919C31.8178 44.6774 31.5237 43.977 30.9339 43.3922C30.3441 42.8074 29.6413 42.5134 28.822 42.5134H26.8217V48.4704H28.822C29.6413 48.4704 30.3458 48.178 30.9339 47.5916C31.5221 47.0069 31.8178 46.3064 31.8178 45.4919ZM83.0327 43.834C82.7483 43.4034 82.3702 43.0596 81.8984 42.8042C81.4379 42.5439 80.9467 42.4138 80.4248 42.4138C79.5781 42.4138 78.851 42.7191 78.2418 43.3263C77.6326 43.932 77.3289 44.6533 77.3289 45.4903C77.3289 46.3273 77.6326 47.0551 78.2418 47.6607C78.851 48.2664 79.5781 48.5684 80.4248 48.5684C81.4072 48.5684 82.2183 48.1732 82.8582 47.3812V45.9915H80.4248V44.9971H83.8584V49.4648H82.8582V48.5636C82.2894 49.2239 81.4767 49.5532 80.4248 49.5532C79.3018 49.5532 78.3388 49.1564 77.5341 48.3612C76.731 47.5627 76.3287 46.6068 76.3287 45.4935C76.3287 44.3802 76.731 43.4307 77.5341 42.6323C78.342 41.829 79.305 41.429 80.4248 41.429C81.1115 41.429 81.7627 41.5977 82.3783 41.9351C82.9939 42.2724 83.4916 42.7287 83.8697 43.3022L83.0327 43.8372V43.834ZM93.0104 49.4648L91.0035 45.9915H88.6751V49.4648H87.6798V41.5238H91.9213C92.5337 41.5238 93.0605 41.7455 93.5016 42.1873C93.9459 42.6259 94.1689 43.1496 94.1689 43.7585C94.1689 44.3288 93.9734 44.8268 93.584 45.2541C93.1897 45.6815 92.7098 45.9225 92.1443 45.9819L94.1689 49.4664H93.0104V49.4648ZM93.1687 43.7585C93.1687 43.4211 93.0459 43.1303 92.8003 42.8861C92.5547 42.6387 92.2622 42.5134 91.9229 42.5134H88.6751V44.9971H91.9229C92.2622 44.9971 92.5547 44.875 92.8003 44.6308C93.0459 44.3866 93.1687 44.0958 93.1687 43.7585ZM97.5847 49.4648V41.5238H102.731V42.5118H98.5801V44.8975H102.658V45.8919H98.5801V48.4688H102.731V49.4632H97.5847V49.4648ZM112.61 43.834C112.326 43.4034 111.946 43.0596 111.476 42.8042C111.015 42.5439 110.524 42.4138 110.002 42.4138C109.156 42.4138 108.428 42.7191 107.819 43.3263C107.21 43.932 106.906 44.6533 106.906 45.4903C106.906 46.3273 107.21 47.0551 107.819 47.6607C108.428 48.2664 109.156 48.5684 110.002 48.5684C110.985 48.5684 111.796 48.1732 112.436 47.3812V45.9915H110.002V44.9971H113.436V49.4648H112.436V48.5636C111.865 49.2239 111.054 49.5532 110.002 49.5532C108.879 49.5532 107.916 49.1564 107.112 48.3612C106.309 47.5627 105.906 46.6068 105.906 45.4935C105.906 44.3802 106.309 43.4307 107.112 42.6323C107.915 41.8339 108.883 41.429 110.002 41.429C110.689 41.429 111.34 41.5977 111.956 41.9351C112.571 42.2724 113.069 42.7287 113.447 43.3022L112.61 43.8372V43.834ZM124.335 45.4919C124.335 46.6084 123.931 47.5643 123.123 48.3596C122.323 49.1548 121.361 49.5516 120.239 49.5516C119.116 49.5516 118.152 49.1548 117.348 48.3596C116.545 47.5611 116.142 46.6052 116.142 45.4919C116.142 44.3786 116.545 43.4291 117.348 42.6307C118.156 41.8274 119.119 41.4274 120.239 41.4274C121.358 41.4274 122.32 41.829 123.123 42.6307C123.931 43.4291 124.335 44.3834 124.335 45.4919ZM123.334 45.4919C123.334 44.6549 123.031 43.9336 122.421 43.3279C121.812 42.7191 121.085 42.4154 120.239 42.4154C119.392 42.4154 118.665 42.7207 118.056 43.3279C117.446 43.9336 117.143 44.6549 117.143 45.4919C117.143 46.3289 117.446 47.0567 118.056 47.6623C118.665 48.268 119.392 48.57 120.239 48.57C121.085 48.57 121.812 48.268 122.421 47.6623C123.031 47.0567 123.334 46.3337 123.334 45.4919ZM132.84 49.4648L130.833 45.9915H128.505V49.4648H127.51V41.5238H131.751C132.364 41.5238 132.89 41.7455 133.331 42.1873C133.776 42.6259 133.999 43.1496 133.999 43.7585C133.999 44.3288 133.803 44.8268 133.414 45.2541C133.02 45.6815 132.54 45.9225 131.974 45.9819L133.999 49.4664H132.84V49.4648ZM132.999 43.7585C132.999 43.4211 132.876 43.1303 132.63 42.8861C132.385 42.6387 132.092 42.5134 131.753 42.5134H128.507V44.9971H131.753C132.092 44.9971 132.385 44.875 132.63 44.6308C132.876 44.3866 132.999 44.0958 132.999 43.7585ZM140.826 46.0028V49.4664H139.825V46.0028L136.649 41.5254H137.825L140.318 44.9377L142.815 41.5254H144.002L140.827 46.0028H140.826ZM52.2675 16.0347C53.258 16.6002 53.9561 16.8315 54.4554 16.8315C55.1518 16.8315 56.1617 16.3881 56.3847 16.2901C56.5236 16.2307 56.8242 15.956 56.8128 15.8998C56.8096 15.8821 56.2812 16.0122 56.2683 16.009C56.2118 16.001 56.1504 16.0122 56.0938 16.0122C55.9112 16.0122 55.7286 16.0267 55.5428 16.0219C54.9013 16.0042 53.8995 15.7664 53.3453 15.5431C52.4728 15.1913 50.6016 13.1976 50.188 12.8072C50.0103 12.6401 49.3462 12.2337 49.0876 12.1019C48.9438 12.0297 48.0228 11.7341 47.5057 11.6634C47.21 11.6232 46.31 11.5654 46.2906 11.5605C46.2341 11.5445 46.2616 11.4818 46.2842 11.4642C46.2923 11.4577 46.3908 11.4176 46.4054 11.4111C46.6332 11.2971 48.6497 11.0384 49.7323 11.3581C49.8406 11.3903 50.7826 11.8369 50.8909 11.8706C50.899 11.8722 50.1961 11.1927 49.7808 10.9565C49.1135 10.5774 47.6916 10.6175 47.4492 10.6882C47.4266 10.6946 47.4023 10.7011 47.3781 10.6994C47.3458 10.6978 47.3102 10.6288 47.3522 10.5934C47.3862 10.5645 47.7206 10.3444 47.8919 10.2753C48.102 10.1918 48.2652 10.1388 48.4607 10.1211C49.1377 10.0601 50.1007 10.2046 50.6259 10.5083C50.8149 10.6175 50.8715 10.632 51.151 10.8537C51.1946 10.8874 51.2803 10.9629 51.3207 11.0031C51.5016 11.1943 52.3209 11.9188 52.5196 12.0939C52.6747 12.2289 54.1015 12.9181 54.1694 12.8426C54.2308 12.7735 54.0223 12.02 53.3566 11.2698C52.9284 10.7894 51.0476 10.2352 51.067 10.0825C51.0832 9.95563 51.2948 9.99419 51.542 9.9733C51.7052 9.96045 51.9912 9.97973 52.1512 10.0167C52.274 10.044 53.3841 10.0038 55.4329 11.6425C55.4539 11.6585 56.131 12.1775 56.2134 12.11C56.2699 12.0634 55.7997 11.5332 55.7949 11.5268C55.2552 10.9163 54.8642 10.5741 54.6315 10.4071C54.1241 10.044 52.8606 9.37728 52.6602 9.27928C52.413 9.1588 51.2641 8.82785 50.9927 8.7668C50.6695 8.6929 50.3512 8.59973 50.0232 8.53386C49.7953 8.48888 48.9067 8.4214 48.6934 8.38445C48.6675 8.37963 48.6384 8.33786 48.632 8.30895C48.6271 8.28003 48.64 8.23665 48.661 8.21898C48.7031 8.18364 48.8679 8.09206 49.8228 8.02298C50.0523 8.00692 51.3708 8.00531 51.9347 8.11616C52.0139 8.13223 52.6699 8.20934 53.3485 8.38445C53.4519 8.41176 55.0193 8.94834 57.0698 9.75482C57.2927 9.84317 57.5303 9.89458 57.7403 10.0167C58.0425 10.0809 58.406 10.2384 58.7227 10.2352C58.7421 10.2352 58.7631 10.2239 58.7809 10.2127C58.7874 10.2095 58.789 10.1854 58.7841 10.1805C58.7583 10.1581 58.6533 10.1115 58.6258 10.0922C58.3883 9.93153 58.1637 9.75482 57.9585 9.554C57.91 9.50581 57.5206 9.22627 57.3848 9.12345C57.3041 9.0608 56.6707 8.48888 56.564 8.40212C56.5285 8.37321 55.6398 7.32575 54.6476 6.55784C54.3552 6.33132 53.5424 5.92326 53.0722 5.81402C52.7087 5.72887 51.6988 5.57946 51.6875 5.57625C51.6616 5.56822 51.6002 5.49914 51.6648 5.44612C51.681 5.43166 51.7731 5.39471 51.8264 5.3915C51.9961 5.37704 53.0512 5.13606 54.1952 5.32081C54.4844 5.3674 55.1873 5.49592 55.4507 5.62123C55.6058 5.69513 55.7626 5.75939 55.9161 5.83811C56.1083 5.93611 57.1635 6.58836 57.1699 6.59318C57.4317 6.81649 57.3655 5.41239 56.4024 4.91436C56.3733 4.8999 55.6091 4.53844 55.3554 4.48542C55.2778 4.46936 55.0322 4.45329 54.953 4.44526C54.9062 4.44044 54.8545 4.42437 54.9029 4.36493C54.9272 4.33602 55.4216 4.24926 55.5687 4.23159C56.2538 4.15127 57.0908 4.42116 57.3283 4.59948C57.8664 5.00433 58.5127 6.26706 59.3917 7.52818C60.059 8.48566 61.2208 9.51866 62.7025 10.1083C64.3894 10.7798 65.4365 10.5035 65.6514 10.4087C65.737 10.3701 65.7984 10.3685 65.8097 10.2689C65.8242 10.1452 65.8016 10.0054 65.7855 9.87691C65.7645 9.69537 65.7839 9.42387 65.7758 9.24073C65.7725 9.16201 65.8808 8.59973 66.0117 8.38606C66.1377 8.18364 66.2977 7.99889 66.5142 7.8784C66.5643 7.85109 66.6192 7.83181 66.6726 7.81253C66.7307 7.79004 66.797 7.83181 66.797 7.88643C66.797 7.90892 66.8018 7.93302 66.7986 7.95551C66.7679 8.26396 66.7954 8.57241 66.8261 8.87765C66.8406 9.02385 66.8778 9.16844 66.9085 9.31302C66.944 9.4801 66.9828 9.64718 67.0216 9.81426C67.0959 10.1388 67.2801 10.3942 67.5257 10.6111C67.6017 10.6786 67.7131 10.7621 67.7988 10.8183C67.8796 10.8713 67.9313 10.8489 67.9474 10.7621C67.9491 10.7509 67.9523 10.7396 67.9539 10.7284C67.9668 10.3653 68.1672 9.81586 68.5404 9.3066C68.618 9.20699 68.6826 9.09775 68.7602 8.99975C68.9169 8.80054 69.1044 8.63346 69.3241 8.50494C69.4033 8.45835 69.4873 8.42301 69.581 8.41016C69.6198 8.40534 69.6521 8.43907 69.644 8.47602C69.636 8.5194 69.6295 8.56278 69.615 8.60455C69.5309 8.86641 69.4712 9.13309 69.4308 9.40459C69.3823 9.72108 69.3694 10.0392 69.4114 10.3589C69.4469 10.6416 69.4679 10.926 69.5326 11.2055C69.573 11.3838 69.6198 11.5605 69.6667 11.7357C69.678 11.779 69.7006 11.8208 69.7232 11.8594C69.7782 11.959 69.8396 12.0554 69.8913 12.1566C69.9721 12.3156 70.0981 12.4265 70.2451 12.518C70.3259 12.5678 70.4148 12.5903 70.5085 12.5743C70.6216 12.555 71.0336 12.6273 71.4845 11.9558C71.5539 11.8513 71.596 11.7308 71.6444 11.6168C71.7058 11.4738 71.743 11.0111 71.4602 10.7701C71.2922 10.6272 71.1064 10.5709 70.8026 10.6754C70.7541 10.6914 70.6281 10.7669 70.5958 10.8103C70.5489 10.873 70.4923 11.0272 70.4665 11.0095C70.4374 10.9902 70.4067 10.9726 70.4083 10.9308C70.4083 10.8858 70.4083 10.8392 70.4132 10.7942C70.4487 10.5147 70.6652 10.285 70.9302 10.2046C71.1403 10.142 71.2178 10.1356 71.4376 10.1516C71.5669 10.1613 71.7672 10.232 71.8642 10.3251C72.0338 10.4858 72.2245 10.677 72.2891 10.881C72.3796 11.1653 72.357 11.514 72.336 11.816C72.336 11.8385 72.336 11.8626 72.3457 11.8835C72.3538 11.9027 72.3683 11.9236 72.3845 11.9365C72.4168 11.959 72.7157 12.073 73.1164 11.085C73.4655 10.2255 73.1213 9.75642 73.0146 9.64075C72.9839 9.60702 72.9532 9.57167 72.9193 9.54436C72.8127 9.456 72.6333 9.48813 72.559 9.61023C72.5364 9.64878 72.5299 9.69537 72.5073 9.73554C72.4992 9.75 72.4701 9.76124 72.4523 9.76124C72.4329 9.75963 72.4103 9.74518 72.3958 9.72911C72.3812 9.71305 72.3699 9.69055 72.3651 9.66806C72.3441 9.58613 72.4459 9.20539 72.8256 9.17165C72.9839 9.15719 73.0906 9.15719 73.2263 9.2086C73.4218 9.2825 73.9906 9.54436 74.1602 10.7541C74.2443 11.3501 74.2863 11.7485 74.0342 12.3911C73.5882 13.5285 73.0163 13.7631 73.1552 13.792C73.3798 13.8386 73.8694 13.5125 74.0827 13.3341C74.3364 13.1221 74.6191 12.3317 74.6337 12.2514C74.6579 12.118 74.8341 12.1373 74.8357 12.2562C74.8421 12.7638 74.8922 13.3984 74.7032 13.8322C74.5222 14.2483 74.0762 14.5696 74.0084 14.6129C73.5947 14.878 73.2118 14.9792 73.0437 15.0563C72.9532 15.0981 72.8127 15.0901 73.0017 15.3294C73.1908 15.5704 73.2392 15.8708 73.2699 16.1664C73.299 16.4396 73.2909 16.7143 73.2667 16.9874C73.257 17.0918 73.2344 17.1882 73.1827 17.2814C73.0098 17.5914 72.9742 17.9272 73.0017 18.2742C73.0082 18.3545 73.013 18.4332 73.0243 18.5136C73.0405 18.6148 73.0631 18.7128 73.055 18.8188C73.0486 18.8959 73.076 18.9763 73.0922 19.0534C73.1164 19.1755 73.1471 19.2976 73.1698 19.4213C73.215 19.6799 73.2473 19.9402 73.3023 20.1956C73.3588 20.4655 73.3588 20.7402 73.3911 21.0117C73.4283 21.3411 73.48 21.664 73.606 21.974C73.6497 22.0833 73.69 22.1941 73.7191 22.3082C73.7321 22.3596 73.7628 22.4094 73.7708 22.4624C73.8032 22.6921 73.8872 22.9026 73.9906 23.1082C74.0213 23.1693 74.0568 23.2303 74.0746 23.2962C74.1635 23.6079 74.3396 23.8761 74.4996 24.1541C74.5464 24.2344 74.6014 24.3051 74.6725 24.3661C74.8114 24.485 74.9488 24.6055 75.0845 24.7276C75.1346 24.7742 75.1798 24.8256 75.2218 24.8802C75.3139 24.9975 75.3253 25.1308 75.2784 25.269C75.238 25.3879 75.196 25.5052 75.1524 25.624C75.1152 25.7236 75.0538 25.804 74.9585 25.8554C74.8163 25.9325 74.6886 26.0273 74.5529 26.1349C74.527 26.2136 74.4931 26.2988 74.4705 26.3855C74.4204 26.5864 74.3461 26.7743 74.2071 26.951C74.0698 26.9976 73.926 27.0683 73.7676 27.102C73.745 27.1069 73.7207 27.1117 73.703 27.1261C73.5204 27.2739 73.2958 27.2691 73.0825 27.2932C72.9209 27.3125 72.7626 27.2675 72.6107 27.2161C72.5105 27.1824 72.4055 27.1583 72.3069 27.1743C72.1615 27.1968 72.0371 27.1518 71.9046 27.1149C71.7074 27.0619 71.5879 26.9398 71.52 26.7566C71.4958 26.6924 71.4635 26.6297 71.4521 26.5623C71.4166 26.355 71.3019 26.1847 71.2001 26.0064C71.1306 25.8859 71.0304 25.7606 70.927 25.6706C70.9125 25.6578 70.885 25.661 70.8624 25.661C70.8333 25.661 70.8042 25.706 70.8107 25.7365C70.8171 25.7702 70.8204 25.804 70.8317 25.8361C70.8591 25.9132 70.8785 26.0192 70.8478 26.0996C70.8365 26.1317 70.8236 26.167 70.8252 26.1992C70.8349 26.3984 70.7945 26.5847 70.6976 26.7599C70.6766 26.7968 70.6717 26.8482 70.6766 26.8916C70.6862 26.9976 70.662 27.094 70.6362 27.1952C70.6119 27.29 70.5586 27.3559 70.4859 27.4185C70.3712 27.5181 70.2581 27.5615 70.1143 27.4667C70.0157 27.4009 69.9026 27.388 69.7846 27.425C69.6764 27.4587 69.581 27.4217 69.497 27.3543C69.253 27.1599 69.0591 26.9189 68.8652 26.6795C68.7844 26.5028 68.7004 26.3277 68.6649 26.1349C68.6584 26.1012 68.6665 26.0626 68.6535 26.0337C68.5598 25.8136 68.5905 25.5871 68.6083 25.359C68.6132 25.2899 68.6148 25.2224 68.639 25.1565C68.6842 25.0361 68.681 24.9107 68.6794 24.7838C68.6762 24.6151 68.6325 24.4673 68.4839 24.3677C68.4225 24.3276 68.3853 24.2697 68.3692 24.2023C68.3352 24.0657 68.2658 23.9484 68.1769 23.8424C68.0347 23.6737 67.9555 23.4697 67.8796 23.2673C67.8279 23.1275 67.739 23.0151 67.6631 22.893C67.6517 22.8737 67.6275 22.8448 67.6113 22.8287C67.5289 22.7516 67.4368 22.6825 67.3657 22.5974C67.2946 22.5106 67.2397 22.4078 67.1848 22.3082C67.0749 22.1138 66.9101 21.9724 66.7259 21.8567C66.5982 21.7764 66.4803 21.6929 66.3898 21.5692C66.3575 21.5242 66.3058 21.4921 66.2638 21.4535C66.2379 21.431 66.2007 21.4133 66.1878 21.386C66.0989 21.1916 65.9196 21.076 65.7887 20.9185C65.6497 20.7531 65.4914 20.6053 65.4025 20.4012C65.3524 20.2872 65.249 20.2036 65.2054 20.0831C65.1876 20.035 65.0939 20.0382 65.0584 20.0831C65.0374 20.1105 65.0131 20.1362 65.0002 20.1667C64.9711 20.2293 64.9404 20.292 64.9242 20.3579C64.8822 20.5362 64.8273 20.7081 64.7643 20.88C64.7675 21.1001 64.6544 21.2961 64.6366 21.513C64.6318 21.582 64.6189 21.6447 64.6479 21.7122C64.6899 21.8069 64.6996 21.9114 64.698 22.0142C64.6964 22.1989 64.7271 22.3773 64.7691 22.5572C64.7917 22.6568 64.8111 22.7596 64.8095 22.8624C64.8095 23.0488 64.8531 23.2239 64.9194 23.3958C64.9598 23.5018 65.005 23.6095 64.9695 23.7283C64.963 23.7492 64.9614 23.7765 64.9695 23.7958C65.0293 23.9484 65.005 24.1123 65.026 24.2697C65.0826 24.6666 65.0923 25.065 65.0535 25.4634C65.0503 25.4971 65.0438 25.5325 65.0503 25.5662C65.0923 25.7751 65.026 25.9743 65.0002 26.1767C64.9856 26.2891 64.9663 26.4016 64.9469 26.5141C64.9226 26.649 64.9032 26.7807 64.9275 26.9221C64.942 27.0089 64.9291 27.1053 64.9065 27.192C64.8386 27.4491 64.8241 27.7109 64.8176 27.9728C64.8144 28.1109 64.8063 28.2443 64.7643 28.3776C64.7029 28.5752 64.8305 29.711 65.1553 30.4774C65.2749 30.7617 65.346 31.3545 65.312 31.5618C65.2943 31.6678 65.9955 31.136 66.191 31.022C66.2735 30.9738 66.5514 30.8083 66.6354 30.7537C66.8083 30.6412 67.5192 30.3247 67.6566 30.2412C67.7164 30.2042 68.3271 30.0002 68.4079 29.9729C68.4613 29.9536 68.8103 29.8428 69.0106 29.9215C69.106 29.9584 69.3322 30.0082 69.4728 30.0548C69.6812 30.1239 69.9527 30.2653 70.1579 30.336C70.1886 30.3472 70.2177 30.3713 70.2403 30.3938C70.2888 30.442 70.3275 30.5014 70.3825 30.5416C70.536 30.6573 70.6168 30.8195 70.6782 30.993C70.7056 31.0685 70.7299 31.1457 70.7687 31.2131C70.8898 31.4316 70.9302 31.6614 70.8898 31.9072C70.8834 31.9521 70.8607 32.0019 70.8721 32.0405C70.948 32.2831 70.8591 32.516 70.8301 32.7522C70.8107 32.9096 70.7557 33.0622 70.7218 33.2181C70.6927 33.3514 70.6604 33.4815 70.6588 33.6213C70.6555 33.7788 70.5327 37.5477 70.5279 37.7983C70.5198 38.1533 70.5602 38.9228 70.6168 39.024C70.6959 39.1638 70.6426 39.4851 70.6717 39.6426C70.6959 39.7727 70.6862 39.898 70.6168 40.0072C70.1078 40.8009 68.7553 42.0315 68.82 42.16C68.8878 42.2901 68.9266 42.3222 68.9929 42.454C69.0559 42.5793 69.0769 42.7142 69.1124 42.846C69.1464 42.9681 69.2013 43.0853 69.3015 43.1673C69.3984 43.2476 69.4873 43.3344 69.5843 43.4147C69.7151 43.5239 69.8589 43.6187 69.9963 43.7215C70.0238 43.7424 70.048 43.7665 70.0706 43.7938C70.1837 43.9416 70.3259 44.0541 70.4794 44.1553C70.5182 44.181 70.5554 44.2067 70.5877 44.2404C70.9593 44.6212 71.2017 44.9168 71.3665 45.5417C71.3843 45.6076 71.3924 45.6783 71.4198 45.7393C71.5636 46.0606 71.5814 46.4012 71.5846 46.7434C71.5846 46.8366 71.8076 47.6816 71.953 47.9981C72.0144 48.133 72.1421 48.3403 72.2358 48.4559C72.3344 48.5796 72.4071 48.7178 72.4588 48.8656C72.5299 49.0729 72.6333 49.2608 72.7771 49.4279C72.8143 49.4713 72.8482 49.5195 72.8708 49.5709C72.9338 49.7106 73.0405 49.8167 73.1536 49.9099C73.3233 50.0496 73.48 50.2006 73.5996 50.3806C73.7224 50.5653 73.8969 50.6954 74.0536 50.8432C74.2184 50.9991 74.4624 51.2674 74.5497 51.4457C74.6789 51.7124 74.8454 51.9598 74.9536 52.2377C74.973 52.2891 75.0166 52.3325 75.0441 52.3823C75.0764 52.4433 75.1152 52.5044 75.1265 52.5686C75.1475 52.7068 75.2138 52.8273 75.2574 52.9574C75.2962 53.0699 75.3705 53.155 75.4691 53.2193C75.5078 53.2434 75.5644 53.2594 75.5806 53.2932C75.6678 53.4811 75.8698 53.547 75.9991 53.6884C76.0637 53.7591 76.1526 53.788 76.2463 53.796C76.3141 53.8008 76.3836 53.8025 76.4531 53.8025C76.5339 53.8025 76.6147 53.8008 76.6939 53.7944C76.8651 53.78 77.0122 53.8217 77.1269 53.9551C77.2901 54.0434 77.4 54.196 77.5422 54.3101C77.6536 54.4001 78.1222 55.2644 78.1869 55.3174C78.3129 55.4218 78.4018 55.5503 78.4583 55.7046C78.4809 55.7672 78.5262 55.8235 78.5666 55.8781C78.6781 56.0243 78.7686 56.1833 78.8316 56.3536C78.8558 56.4195 78.8914 56.4757 78.9431 56.5239C79.1127 56.6813 79.2081 56.8934 79.3438 57.0749C79.4133 57.1681 79.3745 57.5906 79.263 57.6067C79.0029 57.6436 78.7427 57.6918 78.4777 57.6886C78.2822 57.6854 78.0867 57.6742 77.9041 57.5938C77.5082 57.5248 76.0766 57.1231 75.7583 56.9946C75.7163 56.9769 75.6824 56.9432 75.6436 56.9191C75.566 56.8693 75.4933 56.8099 75.4109 56.7745C75.238 56.699 75.1007 56.5769 74.9795 56.442C74.9084 56.3632 74.8308 56.3038 74.7419 56.2492C74.6175 56.1721 74.5384 56.0693 74.5577 55.9102C74.5658 55.8427 74.5577 55.7737 74.5529 55.7062C74.5384 55.5134 74.5044 55.3222 74.5384 55.1278C74.5448 55.0957 74.5254 55.0604 74.527 55.0266C74.5367 54.874 74.4705 54.7632 74.3428 54.6844C74.3331 54.678 74.3235 54.6716 74.3154 54.6652C74.0714 54.4949 74.0972 54.4708 73.8193 54.5768C73.7676 54.5961 73.7062 54.6089 73.6513 54.6057C73.4881 54.5961 73.3346 54.633 73.1778 54.6684C73.0114 54.7053 72.8369 54.7182 72.6672 54.6619C72.6236 54.6475 72.5768 54.6411 72.5347 54.6266C72.4071 54.5816 72.2649 54.6234 72.1373 54.5382C72.0258 54.4627 71.8836 54.4354 71.7608 54.3744C71.5976 54.2908 71.4263 54.225 71.2582 54.1543C71.15 54.1093 71.0482 54.0659 70.9302 54.0595C70.8737 54.0563 70.8187 54.0434 70.7654 54.0258C70.536 53.9535 70.3146 53.9727 70.0965 54.0723C69.9624 54.1334 69.8137 54.1575 69.6974 54.2635C69.6457 54.3117 69.5665 54.2892 69.5035 54.2507C69.4695 54.2298 69.4582 54.1961 69.4647 54.1623C69.4728 54.1173 69.4841 54.0707 69.5051 54.0322C69.6295 53.8185 69.8008 53.6563 70.0383 53.5695C70.3986 53.4378 70.3986 53.4394 70.8091 53.4554C70.9125 53.4603 71.011 53.4667 71.1144 53.4908C71.2098 53.5133 71.3455 53.5438 71.4473 53.5374C71.4538 53.5374 71.8222 53.5004 71.5701 53.3205C71.562 53.3157 71.0433 52.9879 70.8527 53.0201C70.7848 53.0313 70.5537 53.0169 70.5424 52.9767C70.5295 52.9301 70.536 52.8851 70.5715 52.8514C70.6539 52.7711 70.7428 52.6923 70.8575 52.6682C71.1371 52.6104 71.5863 52.4947 71.848 52.5719C72.1825 52.6682 72.1825 51.9196 72.0985 51.8088C72.0662 51.7654 71.6606 50.9846 71.4828 50.734C71.3762 50.583 70.9706 49.8906 70.9367 49.8327C70.8559 49.6946 70.0803 48.4447 70.0044 48.3612C69.9252 48.2744 69.2126 47.8182 69.0397 47.6109C68.8604 47.3956 68.6519 47.2077 68.45 47.0117C68.4112 46.9747 68.3465 46.9121 68.3045 46.8783C68.1963 46.79 68.0945 46.4237 68.0654 46.3771C67.9701 46.2197 67.5079 45.516 67.4094 45.4019C67.3415 45.3248 67.2753 45.2477 67.2203 45.1594C67.1363 45.0244 67.0377 44.8959 66.9052 44.8011C66.7647 44.6999 66.6612 44.5617 66.5304 44.4509C66.4512 44.3834 66.3898 44.3031 66.3413 44.2099C66.3058 44.1408 66.2541 44.075 66.1991 44.0187C66.0973 43.9127 66.2831 43.9047 66.1813 43.9834C66.0198 44.1103 65.7208 44.3834 65.5916 44.5425C65.4849 44.6758 64.9275 45.3618 64.8677 45.5947C64.8321 45.7361 64.4136 46.2663 64.2957 46.2968C64.2391 46.3112 63.1614 47.0792 62.8657 46.9185C62.8059 46.8864 62.633 45.5369 62.696 44.8879C62.7073 44.7754 62.6492 43.2155 62.6912 43.0805C62.6734 42.9022 64.1276 42.9375 64.2989 42.8942C64.5284 42.8363 64.8305 42.5905 64.879 42.4138C64.8919 42.3704 63.7188 41.6957 63.588 41.5881C63.5266 41.5383 63.449 41.5077 63.3763 41.474C63.2196 41.4017 63.0547 41.3551 62.8899 41.3069C62.8366 41.2909 62.7768 41.2925 62.7203 41.2941C62.6621 41.2957 62.6072 41.3182 62.5684 41.3648C62.5248 41.4178 62.3131 41.7423 62.2161 41.8274C62.1903 41.8499 62.166 41.8788 62.1547 41.9094C62.0933 42.0877 61.098 43.3649 61.043 43.4645C61.0204 43.5046 60.1673 44.4204 60.1285 44.5698C60.1091 44.6453 58.8423 45.8839 58.7454 45.9948C58.5595 46.2068 56.3491 48.0575 55.3602 48.7467C55.3328 48.766 57.338 49.9195 57.4656 50.0062C57.5594 50.0705 57.6353 50.1573 57.7565 50.1797C57.8098 50.1894 57.8615 50.2247 57.9051 50.2601C57.9681 50.3099 58.0279 50.3581 58.1023 50.3918C58.2638 50.4641 58.3656 50.6087 58.4804 50.7356C58.5175 50.7758 58.5353 50.8352 58.5547 50.8882C58.5741 50.9412 58.5773 51.0007 58.5983 51.0537C58.7001 51.2866 58.7583 51.5276 58.7664 51.7831C58.7696 51.8602 58.8019 51.9373 58.8229 52.0144C58.8585 52.1493 58.8698 52.2811 58.8181 52.4176C58.7744 52.5333 58.7841 52.6634 58.7373 52.7823C58.713 52.8434 58.726 52.9173 58.7211 52.9847C58.713 53.1213 58.7098 53.2578 58.6953 53.3944C58.6597 53.7462 58.5902 54.0948 58.6209 54.4499C58.5854 54.7567 58.5999 55.0652 58.5822 55.372C58.5789 55.4283 58.5741 55.4861 58.5676 55.5423C58.5434 55.7801 58.5111 56.0178 58.4949 56.2556C58.4804 56.4612 58.5337 56.6605 58.6016 56.8548C58.6096 56.8773 58.6209 56.8998 58.6371 56.9175C58.7437 57.0396 58.8698 57.1376 59.0168 57.2083C59.0572 57.2276 59.1057 57.2372 59.1493 57.2372C59.2172 57.2388 59.2915 57.2436 59.3545 57.2227C59.508 57.1729 59.6728 57.1633 59.8215 57.1103C60.1447 56.9946 60.4759 56.9079 60.8023 56.8018C60.8621 56.7826 60.9186 56.7536 60.9703 56.7183C61.1432 56.601 61.3161 56.4805 61.5213 56.413C61.7589 56.3343 61.9786 56.2219 62.1644 56.0516C62.2 56.0178 62.2404 55.9889 62.2856 55.968C62.3696 55.9279 62.4617 55.9054 62.5393 55.8572C62.6072 55.8154 62.6669 55.764 62.751 55.7528C62.7833 55.748 62.8156 55.7287 62.8431 55.7078C62.9513 55.6242 63.0677 55.5471 63.163 55.4507C63.2309 55.3817 63.3068 55.3351 63.3957 55.3142C63.5217 55.2837 63.6267 55.2258 63.7302 55.1471C63.9224 55.0009 64.1341 54.8836 64.3894 54.8901C64.4007 54.8901 64.4136 54.8901 64.4233 54.8853C64.5898 54.8162 64.7578 54.8306 64.9291 54.8611C64.9743 54.8692 65.0212 54.8692 65.0664 54.8692C65.1505 54.8708 65.2264 54.8949 65.2862 54.9543C65.3864 55.0555 65.5318 55.0812 65.6417 55.1616C65.7515 55.2419 65.8501 55.3383 65.9584 55.4234C65.9939 55.4507 66.0359 55.47 66.0796 55.4797C66.2056 55.5054 66.3171 55.5632 66.4334 55.613C66.5724 55.6741 66.6467 55.7801 66.7 55.9102C66.7081 55.9311 66.7113 55.9552 66.7178 55.9761C66.7776 56.1592 66.7647 56.3633 66.8794 56.5319C66.9893 56.6942 67.0329 56.887 67.1217 57.0605C67.1589 57.1328 67.1993 57.1986 67.2542 57.2581C67.4094 57.4284 68.1381 58.426 68.2124 58.667C68.2254 58.7104 68.2302 58.7602 68.2561 58.7955C68.3708 58.9546 68.416 59.1474 68.5146 59.316C68.66 59.5618 68.7715 59.8269 68.8539 60.1016C68.8927 60.2334 68.9444 60.3603 68.9783 60.492C69.0139 60.6237 69.0446 60.7587 69.0607 60.8936C69.0737 61.0093 69.051 61.1218 68.9395 61.1957C68.9121 61.2133 68.8895 61.2423 68.8685 61.268C68.6939 61.4945 68.6519 61.4543 68.3902 61.4527C68.3465 61.4527 67.8408 61.2423 67.621 61.1973C67.5176 61.1764 67.4207 61.1491 67.3302 61.0993C67.1282 60.99 66.9182 60.9017 66.7113 60.8021C66.5271 60.7121 66.3462 60.6077 66.1781 60.4904C66.0779 60.4213 66.0101 60.3073 65.9115 60.2285C65.8129 60.1498 65.7322 60.0518 65.674 59.9394C65.6207 59.8349 65.5512 59.7482 65.4639 59.6711C65.3605 59.5795 65.2716 59.4799 65.2005 59.3594C65.1068 59.2036 64.984 59.0654 64.8725 58.9208C64.8418 58.8807 64.7724 58.8967 64.7578 58.9497C64.7449 59.0028 64.7271 59.0558 64.7029 59.1056C64.6237 59.263 64.4023 59.5056 64.3102 59.6936C64.2812 59.7546 64.2262 59.904 64.2084 59.9651C64.1664 60.1064 64.105 60.243 64.1018 60.3956C64.1018 60.439 64.0808 60.4824 64.0662 60.5257C64.0485 60.5756 63.958 60.5852 63.9208 60.5482C63.853 60.4808 63.8239 60.3924 63.798 60.3057C63.7172 60.0325 63.7495 59.2502 63.6833 58.9706C63.6801 58.9594 63.672 58.9497 63.6671 58.9401C63.6542 58.9112 63.6009 58.8791 63.5847 58.8903C63.567 58.9032 63.5443 58.916 63.5379 58.9321C63.5072 59.0172 63.4118 59.6646 63.386 59.7514C63.3407 59.904 63.3052 60.0615 63.2503 60.2109C63.1565 60.4583 62.9158 60.6591 62.7235 60.8471C62.6395 60.929 62.5441 60.99 62.431 61.0206C62.3987 61.0286 62.3632 61.0302 62.3292 61.0286C62.3082 61.027 62.2808 61.0157 62.2727 61.0013C62.263 60.9852 62.2662 60.9531 62.2775 60.9386C62.3212 60.8872 62.3519 60.8535 62.4003 60.8053C62.4343 60.7748 62.4682 60.7057 62.5021 60.6752C62.5991 60.59 62.654 60.484 62.688 60.3603C62.7687 60.0615 62.8479 59.7643 62.8334 59.451C62.8334 59.4285 62.8334 59.3932 62.8366 59.3707C62.8705 59.0799 62.8075 58.8437 62.6863 58.5867C62.6556 58.5192 62.6007 58.4806 62.5345 58.4565C62.3793 58.4019 62.2194 58.3939 62.0594 58.4212C61.9463 58.4405 61.8364 58.4726 61.7282 58.5063C61.6829 58.5192 61.6409 58.5433 61.6054 58.5754C61.51 58.6606 61.3904 58.704 61.2757 58.7489C61.0301 58.8437 60.7958 58.9562 60.5858 59.1152C60.5195 59.165 60.4468 59.2052 60.3709 59.2389C60.2465 59.2919 60.1366 59.3755 60.0267 59.4526C59.9588 59.4992 59.8894 59.5297 59.8086 59.5474C59.7423 59.5618 59.6793 59.5891 59.6163 59.6181C59.5436 59.6518 59.4773 59.7064 59.4014 59.7257C59.2269 59.7707 59.0992 59.8783 58.9716 59.9956C58.8035 60.1498 58.6226 60.2912 58.44 60.4278C58.3592 60.4888 58.2671 60.5515 58.1701 60.5756C57.9924 60.6189 57.8938 60.778 57.7339 60.8406C57.7015 60.8535 57.6805 60.8969 57.6531 60.921C57.5836 60.982 57.5157 61.0463 57.4576 61.1186C57.3267 61.2824 57.1893 61.427 56.976 61.4463C56.8791 61.5057 56.7757 61.5411 56.6577 61.5491C56.5462 61.5571 56.4364 61.6069 56.3265 61.6342C56.2942 61.6423 56.2586 61.6375 56.2247 61.6326C56.1794 61.6262 56.1342 61.6118 56.089 61.6085C55.9678 61.6037 55.8741 61.5491 55.7803 61.4736C55.685 61.3949 55.622 61.3065 55.6317 61.1828C55.6414 61.0511 55.5832 60.937 55.5396 60.8213C55.4507 60.5836 55.3958 60.3426 55.4055 60.0888C55.336 59.7578 55.4362 59.4301 55.4249 59.1008C55.4232 59.0349 55.4588 58.969 55.4685 58.9016C55.4766 58.8341 55.4685 58.765 55.4733 58.6991C55.4863 58.5481 55.4572 58.4035 55.4055 58.2638C55.3424 58.0919 55.2843 57.9216 55.2617 57.7384C55.2503 57.6501 55.2164 57.5585 55.1712 57.483C55.1001 57.3641 55.0451 57.2404 55.008 57.1071C54.974 56.9818 54.9126 56.8773 54.8205 56.7858C54.7171 56.6813 54.6331 56.556 54.4958 56.4886C54.3083 56.3054 54.087 56.1592 53.9076 55.968C53.8123 55.8668 53.7202 55.7737 53.5764 55.7367C53.4907 55.7142 53.4083 55.6612 53.334 55.6098C53.2742 55.5696 53.2112 55.5536 53.1449 55.5375C53.0561 55.515 52.964 55.5455 52.8735 55.5102C52.8008 55.4797 52.7151 55.4797 52.6408 55.4524C52.4275 55.3704 52.2061 55.311 51.9848 55.2596C51.7715 55.2098 50.9894 54.8885 50.8133 54.7808C50.6307 54.67 49.5659 54.2908 49.5223 54.2796C49.4883 54.2716 48.6433 53.9021 48.6384 53.9326C48.6368 53.9438 49.0682 55.4138 49.0666 55.425C49.0666 55.6419 49.6774 58.5995 49.6839 58.6766C49.6984 58.8726 50.0506 60.1803 49.7372 61.4752C49.5756 62.1419 49.3348 62.6078 48.8792 63.1283C48.7968 63.2231 48.1779 63.8994 48.0745 63.9814C48.0212 64.0231 47.2763 64.481 47.2165 64.5147C45.5199 65.4899 42.7536 66.3478 42.6793 66.4153C42.5775 66.5084 41.3479 67.0643 41.2541 67.0755C41.0651 67.098 40.2507 67.8001 40.0213 68.07C39.9696 68.131 39.913 68.1921 39.8775 68.2612C39.7999 68.4202 39.6609 68.5246 39.5414 68.6467C39.5107 68.6788 39.4719 68.711 39.4299 68.7254C39.2198 68.7993 38.3408 69.8821 38.2374 70.1488C38.197 70.2548 38.1356 70.3528 38.0807 70.4541C38.0484 70.5151 38.008 70.5713 37.9805 70.634C37.8496 70.9248 37.722 71.2188 37.5927 71.5095C37.5426 71.6252 37.2647 72.4461 37.2954 72.7546C37.3164 72.9634 37.1936 73.7699 37.1613 73.9723C37.1548 74.0077 37.1548 74.043 37.1613 74.0784C37.1887 74.2583 37.2162 74.4366 37.2469 74.6166C37.2792 74.8093 37.3422 74.9925 37.4263 75.1692C37.4764 75.2752 37.5022 75.3813 37.4941 75.5001C37.4796 75.709 37.5975 75.868 37.7203 76.0207C37.7624 76.0737 37.8221 76.1122 37.8755 76.1572C37.9385 76.2102 37.9837 76.2729 37.9983 76.3564C38.008 76.4127 38.016 76.4737 38.0467 76.5203C38.1566 76.6954 38.2245 76.8882 38.2778 77.0858C38.2956 77.1516 38.3263 77.2127 38.3473 77.277C38.4119 77.4858 38.4701 77.6963 38.5363 77.9035C38.5606 77.9774 38.5767 78.0529 38.5848 78.13C38.6058 78.3116 38.6284 78.4947 38.6688 78.6714C38.7076 78.8369 38.7722 78.9959 38.8207 79.1598C38.8757 79.3478 38.8934 79.5406 38.8466 79.7333C38.8369 79.7719 38.7997 79.8185 38.7625 79.8345C38.6591 79.8843 38.5509 79.9213 38.4426 79.9582C38.3554 79.9888 38.2649 80.0016 38.1712 79.9936C37.827 79.9695 37.4893 79.8956 37.1516 79.8313C36.9884 79.7446 36.1853 79.4297 36.0173 79.2401C35.8799 79.0843 35.7377 78.9381 35.5713 78.816C35.4598 78.7341 35.3629 78.6393 35.2756 78.5349C35.1593 78.3951 35.0332 78.2618 34.9282 78.1107C34.8232 77.9613 34.6923 77.8328 34.576 77.6914C34.4952 77.595 34.4241 77.4922 34.3433 77.3958C34.2447 77.2802 34.1866 77.1452 34.1397 77.0039C34.1252 76.9605 34.1252 76.9107 34.1041 76.8721C33.97 76.6327 34.067 76.4319 34.2059 76.2408C34.2722 76.1476 34.3562 76.0688 34.4515 76.0014C34.5921 75.9018 34.7149 75.7813 34.8426 75.6672C34.9282 75.5901 34.9508 75.4969 34.9912 75.4037C34.9993 75.3845 35.009 74.5459 34.7489 74.5651C34.9428 74.5507 34.3724 74.5571 34.1898 74.5619C33.97 74.5684 33.3754 74.3595 33.2607 74.3515C33.0183 74.3338 32.2977 74.5105 32.1425 74.533C31.9228 74.5635 31.8986 74.5876 31.7725 74.5603C31.7354 74.5523 31.6271 74.5009 31.6255 74.4623C31.6223 74.3916 31.6966 74.3226 31.7548 74.276C31.8162 74.2262 32.6483 73.8535 32.8357 73.6671C32.8454 73.6575 32.9989 73.4261 32.9941 73.4181C32.9101 73.2607 32.7436 73.243 32.2492 73.3538C32.0537 73.3731 31.5932 73.6976 31.4784 73.7073C31.4348 73.7105 31.3896 73.688 31.3653 73.6414C31.3427 73.598 31.3459 73.553 31.3653 73.5113C31.375 73.492 31.388 73.4695 31.4041 73.4566C31.5382 73.3506 31.7127 73.0277 32.2282 72.7723C32.414 72.6791 32.6192 72.6132 32.7856 72.5682C32.9521 72.5249 33.0975 72.5329 33.2607 72.4799C33.3156 72.4622 33.3706 72.4445 33.4271 72.4365C33.6081 72.4092 33.7826 72.3449 33.9426 72.2566C34.0912 72.1746 34.2447 72.1023 34.3805 71.9963C34.4515 71.9401 34.5437 71.9128 34.618 71.8598C34.8313 71.7055 35.0462 71.5497 35.2481 71.3826C35.379 71.2734 35.4986 71.1481 35.5923 71.0019C35.6909 70.8477 35.804 70.7031 35.8961 70.544C35.9753 70.4059 36.0383 70.2581 36.0948 70.1087C36.1272 70.0235 36.1611 69.94 36.2128 69.8629C36.3146 69.7102 36.3873 69.5432 36.4422 69.368C36.4972 69.1945 36.5699 69.0259 36.6135 68.8491C36.6297 68.7833 36.6474 68.7094 36.6895 68.6596C36.8155 68.5118 36.83 68.327 36.8785 68.1519C36.885 68.1294 36.8817 68.1053 36.8898 68.0844C37.053 67.7149 37.0272 67.3278 37.0094 66.939C36.9997 66.7093 37.0094 66.4843 37.0595 66.2578C37.0918 66.1116 37.1354 65.9719 37.1984 65.8369C37.2421 65.7437 37.2792 65.6473 37.3261 65.5558C37.3681 65.4722 37.3923 65.3871 37.3972 65.2939C37.4069 65.1445 37.4457 65.0031 37.5006 64.8634C37.5701 64.6834 37.6315 64.4971 37.6331 64.3011C37.6331 64.1324 37.7074 63.9894 37.7995 63.8593C37.8868 63.7356 38.0257 63.6665 38.1615 63.6071C38.2439 63.5717 38.3327 63.5508 38.42 63.5251C38.5105 63.4994 38.6042 63.4946 38.6963 63.5075C38.7642 63.5171 38.8336 63.5267 38.8999 63.5428C39.2247 63.6247 39.5575 63.6247 39.8872 63.6569C39.9566 63.6633 40.0213 63.652 40.0875 63.6263C40.3234 63.538 40.5513 63.4287 40.7839 63.3323C40.8162 63.3195 40.8518 63.3082 40.8744 63.2841C40.994 63.1524 41.1523 63.0898 41.3123 63.0255C41.4303 62.9773 41.5208 62.905 41.5983 62.7942C41.6888 62.6656 41.8197 62.5628 41.9344 62.452C42.0006 62.3877 42.0491 62.317 42.0717 62.2271C42.1089 62.0825 42.5032 61.5282 42.5064 61.3194C42.5096 61.0816 42.4515 60.7298 42.4466 60.6077C42.4159 59.8542 41.0586 58.6461 40.5933 57.9617C40.1279 57.2774 39.1891 55.8235 39.1374 55.703C39.0922 55.5985 39.055 55.4877 39.0372 55.3768C39.0098 55.1937 38.315 54.0482 38.2633 53.9599C38.2342 53.9085 38.1938 53.8747 38.1453 53.841C38.0241 53.7543 37.4198 52.5108 37.3697 52.3582C37.297 52.1381 37.1015 52.2763 36.9318 52.3887C36.8462 52.4449 35.5681 53.2851 35.4016 53.4056C35.3176 53.4667 35.2304 53.5197 35.1463 53.5807C34.9137 53.7494 34.6681 53.8972 34.4031 54.0081C34.1591 54.1109 32.6111 55.4732 28.9125 55.6869C28.7526 55.6965 27.3306 55.6339 25.6243 55.3319C25.2963 55.274 23.5383 54.7455 22.8726 54.4081C19.9254 52.9157 18.6779 51.6047 18.3693 51.3878C18.0284 51.1469 17.5323 50.787 17.1397 50.6569C17.1284 50.6537 17.1187 50.6472 17.1074 50.6472C16.9022 50.6344 16.0038 50.3115 15.002 50.9493C14.8032 51.0762 14.716 51.338 14.6675 51.4425C14.6529 51.473 14.6239 51.6063 14.5996 51.6272C14.5867 51.6401 14.5996 51.8248 14.5027 51.8039C14.4752 51.7975 14.3007 51.179 14.2862 51.0344C14.2765 50.9316 14.2506 50.6874 14.4251 50.3018C14.4332 50.2842 14.3669 50.2697 14.3492 50.2665C14.3152 50.2601 14.2797 50.2585 14.2474 50.2665C14.1019 50.3018 13.9581 50.3404 13.8143 50.379C13.7917 50.3854 13.6835 50.4079 13.6657 50.4207C13.4556 50.5782 13.2827 50.5798 13.0921 50.7677C13.0016 50.8545 12.8836 50.9364 12.798 51.028C12.6396 51.1983 12.5298 51.3734 12.4635 51.5951C12.4377 51.6834 12.4053 51.7943 12.3779 51.8811C12.3585 51.9421 12.2858 52.0513 12.2228 52.0562C12.1678 52.061 12.1452 51.7702 12.1468 51.7493C12.1597 51.571 12.1048 51.2513 12.2082 50.8963C12.2648 50.7003 12.5039 50.1396 12.6655 50.0127C12.9337 49.8006 13.719 49.3283 14.1343 49.2897C14.249 49.2785 14.333 49.1773 14.3928 49.0777C14.4009 49.0632 14.396 49.0311 14.3847 49.015C14.3653 48.9893 14.3395 48.962 14.3104 48.9475C14.27 48.9267 14.2248 48.917 14.1827 48.8993C13.2326 48.509 12.0838 48.5331 11.2468 48.7307C11.1256 48.7596 11.0109 48.819 10.8962 48.8704C10.7346 48.9443 10.5956 48.9957 10.5035 49.1451C10.4664 49.2062 10.434 49.3427 10.4373 49.4118C10.4421 49.5612 10.4761 49.7379 10.5229 49.8793C10.5601 49.9918 10.6538 50.0641 10.7281 50.1492C10.7346 50.1556 10.7362 50.1749 10.733 50.1813C10.7217 50.1974 10.7071 50.2199 10.691 50.2215C10.5617 50.2392 10.4357 50.2247 10.3306 50.1444C10.119 49.9837 9.95738 49.7122 9.9493 49.4391C9.94768 49.3476 9.95899 49.3122 9.94768 49.2206C9.94284 49.1821 9.87982 49.1532 9.83942 49.1676C9.70854 49.2174 9.58413 49.2287 9.49849 49.3427C9.4177 49.4536 9.32398 49.5163 9.25773 49.6367C9.2141 49.7155 9.12039 49.8536 9.11069 49.9436C9.07999 50.2312 9.12685 50.583 9.25773 50.8497C9.32236 50.983 9.37245 51.0906 9.43224 51.2272C9.44516 51.2577 9.48394 51.3316 9.49687 51.3638C9.50818 51.3943 9.50818 51.4537 9.48556 51.4634C9.46617 51.4714 9.41931 51.473 9.39992 51.4698C9.23672 51.4473 9.13816 51.4087 9.01213 51.3027C8.92487 51.2288 8.81984 51.1485 8.73259 51.0746C8.68896 51.0376 8.61948 50.9412 8.58232 50.8995C8.19452 50.4802 8.18968 50.3516 8.11535 50.2215C8.00224 50.0191 8.01194 49.9179 7.97962 49.6898C7.97154 49.6335 7.96508 49.5773 7.90529 49.5468C7.77279 49.5725 7.65322 49.5934 7.58374 49.7058C7.49649 49.844 7.38661 50.101 7.36884 50.2649C7.28159 51.0698 7.49326 52.0064 8.17352 52.4899C8.87801 52.9896 9.8879 53.0506 10.691 53.3253C10.7782 53.3542 10.9139 53.4169 10.998 53.4506C12.2098 53.939 12.9176 54.7391 13.3167 55.8765C13.3361 55.9295 13.3409 56.0612 13.2908 56.0901C13.2197 56.1319 13.1454 56.0114 13.1066 55.9664C12.8384 55.6483 12.6542 55.3238 12.3585 55.0298C12.0741 54.7471 11.6314 54.4756 11.2339 54.3824C11.2193 54.3792 11.2064 54.3953 11.2161 54.4081C11.4132 54.6732 11.6653 55.062 11.591 55.3688C11.4472 55.0523 11.2274 54.7246 10.9107 54.5768C10.8978 54.5704 10.8073 54.5077 10.7556 54.4724C10.7475 54.4659 10.7362 54.4756 10.7411 54.4852C10.9349 54.8354 11.1999 55.3544 11.2565 55.756C11.271 55.8636 11.2436 56.0066 11.1951 56.0773C11.1676 56.1175 11.103 56.1062 11.0917 56.058C11.0626 55.9375 10.9349 55.7094 10.9236 55.6837C10.8542 55.5246 10.7766 55.3415 10.6651 55.2098C10.4098 54.9029 10.1868 54.572 9.93637 54.4402C9.64714 54.286 8.98627 54.0161 8.67442 54.1302C8.60494 54.1559 9.16563 54.4949 9.21734 54.5479C9.61321 54.9415 9.71177 55.4074 9.71177 55.862C9.71177 55.907 9.73601 56.1303 9.71177 56.1689C9.64229 56.2717 9.5098 55.9456 9.45486 55.8717C9.06383 55.3431 8.58878 54.8917 8.00547 54.5848C7.54012 54.339 7.06184 54.1655 6.56416 53.992C6.06649 53.8201 5.56559 53.6498 5.12932 53.3574C4.4636 52.9092 3.96755 52.0931 4.00633 51.33C4.01764 51.0971 4.04834 50.8738 4.10974 50.6537C4.13074 50.5766 4.13882 50.5573 4.10812 50.5717C4.09843 50.5766 3.61691 50.9718 2.77346 51.0328C2.05603 51.0842 1.14148 50.8063 1.06715 50.546C1.03161 50.4207 1.61492 50.5075 1.60522 50.4898C1.60522 50.4882 2.43898 50.501 2.6959 50.3709C2.79931 50.3195 2.92858 50.2553 3.02068 50.1862C3.18711 50.0625 3.24043 50.0094 3.37131 49.8617C3.41978 49.807 3.54097 49.6046 3.4828 49.5468C3.43594 49.5002 2.72337 49.9227 2.49554 49.9821C1.26428 50.3034 0.278636 49.6801 0.184918 49.6142C0.14937 49.5901 0.0879694 49.5532 0.0508056 49.5275C-0.0332169 49.4681 -0.000900573 49.4118 0.0136418 49.4022C0.0411107 49.3829 0.231777 49.4054 0.264093 49.4022C0.491924 49.3781 1.37416 49.4118 1.60361 49.3909C2.01079 49.3524 2.39051 49.2399 2.72821 49.0038C2.93504 48.8592 4.76091 47.5579 4.92572 47.4438C5.03075 47.3715 6.92772 45.9803 7.09415 45.8582C7.16848 45.8036 7.89075 45.4582 8.17675 45.3409C8.39004 45.2525 9.20602 45.1176 9.38376 45.0662C9.55019 45.0196 11.3631 44.9875 11.3745 44.9891C11.7606 45.0341 12.1533 45.0485 12.5298 45.161C12.5621 45.1706 12.596 45.1819 12.6283 45.1915C13.0856 45.3136 13.412 45.5096 13.8192 45.7473C13.9081 45.7988 13.9905 45.8357 14.0858 45.8759C14.2248 45.9337 14.3589 45.9915 14.4817 46.0767C14.5188 46.1024 14.5915 46.1699 14.6336 46.1779C14.7887 46.2068 14.8905 46.3032 15.0084 46.3932C15.1264 46.4831 15.2799 46.5908 15.4043 46.6727C15.4431 46.6984 15.4689 46.7305 15.5045 46.7578C15.7323 46.9297 15.9569 47.0759 16.175 47.2591C16.2898 47.3555 16.4303 47.4599 16.5564 47.5386C16.7907 47.6848 16.9878 47.8085 17.1898 47.9965C17.2399 48.0431 17.3368 48.1121 17.3918 48.1539C17.5727 48.2953 17.7278 48.4431 17.8813 48.6118C18.1189 48.8736 18.3419 49.1162 18.623 49.3347C18.6941 49.3909 18.7749 49.4616 18.8395 49.5275C19.0221 49.7171 19.2063 49.9195 19.4164 50.0785C19.6652 50.3613 20.604 51.1517 20.8351 51.285C20.9659 51.3605 22.194 52.3871 23.7662 53.0972C25.054 53.6787 25.4821 53.8796 28.3228 54.0386C28.3793 54.0418 30.021 54.127 31.5932 53.5583C31.6562 53.5358 32.2363 53.3446 33.9393 52.2859C34.046 52.22 34.841 51.6288 35.1027 51.4152C35.3693 51.1983 35.5955 50.9685 35.8185 50.7244C36.0189 50.5043 36.1934 50.2665 36.3388 50.003C36.4826 49.7444 36.6555 49.5018 36.8349 49.2656C36.8898 49.1917 36.9496 49.1243 36.9851 49.0391C37.0029 48.9973 37.032 48.9604 37.0611 48.9267C37.2873 48.6487 37.4602 48.3435 37.5588 47.9981C37.6056 47.8326 37.6654 47.672 37.7171 47.5097C37.7446 47.4213 37.7801 47.341 37.8431 47.2687C37.8868 47.2173 37.9256 47.1563 37.9449 47.092C37.9902 46.9394 38.0597 46.7932 38.1033 46.6406C38.1308 46.541 38.1598 46.4494 38.2245 46.3643C38.2778 46.2936 38.3069 46.202 38.3327 46.1152C38.3683 45.9964 38.3893 45.8727 38.42 45.7506C38.4588 45.5947 38.4943 45.4389 38.6074 45.3152C38.664 45.2525 38.6769 45.1706 38.6834 45.0919C38.6995 44.883 39.9938 42.7448 40.1861 42.6291C40.2604 42.5841 40.6854 42.1005 40.8825 41.9817C41.0489 41.8804 41.7276 41.339 41.7357 41.331C41.8714 41.1929 42.6147 40.7334 42.6163 40.7157C42.6163 40.7109 44.3969 39.5847 44.5666 39.3903C44.5795 39.3743 44.9689 39.1365 44.7944 39.0835C44.6732 39.0465 43.8233 39.8273 42.9443 39.9237C42.4353 39.9799 42.4612 39.9767 42.2883 39.943C42.1638 39.9189 41.9263 39.7904 42.1638 39.6185C42.3093 39.514 43.1156 39.2731 43.4953 38.9228C43.8508 38.5967 44.0576 38.3766 44.014 38.3847C43.8023 38.4264 42.8215 38.9437 42.2366 39.0947C41.9392 39.1718 41.3365 39.2923 40.6724 39.2731C40.2168 39.2602 40.4689 39.0144 40.4979 39.0064C40.5771 38.9855 41.1071 38.706 41.5385 38.4473C41.9231 38.216 42.2188 37.8304 42.1945 37.7758C42.1816 37.7453 41.3818 38.1533 40.8324 38.2593C40.7823 38.2706 40.5383 37.8593 40.4834 37.877C40.4107 37.9011 40.5109 38.4184 40.4204 38.4634C40.1101 38.6176 39.7062 38.6497 39.5365 38.677C38.9564 38.7686 38.4281 38.7477 38.071 38.6674C37.9643 38.6433 37.8286 38.5565 37.9466 38.4634C38.0807 38.3557 38.8724 38.0858 39.6351 37.7533C40.5286 37.3629 40.6143 37.0818 40.7468 36.9099C40.8114 36.8279 39.8904 37.138 39.2909 37.3501C38.6478 37.5766 36.7395 38.0216 35.9171 37.9846C35.5212 37.967 35.686 37.7469 35.7119 37.7356C36.3808 37.4368 36.8672 37.1862 37.2081 36.9886C37.9724 36.5484 37.9449 36.2608 37.9546 36.2512C37.9886 36.2175 37.0966 36.6062 36.4002 36.8729C36.111 36.9838 35.56 37.2023 35.0106 37.3613C34.9185 37.3886 34.4984 36.6914 34.4693 36.6946C34.395 36.7042 34.5226 37.477 34.4693 37.4946C34.3465 37.5348 33.9506 37.726 33.0038 37.8497C32.9795 37.8529 31.8824 37.8898 31.6271 37.832C31.4364 37.7886 31.4138 37.673 31.6045 37.5396C31.7208 37.4577 32.6499 37.1412 33.3253 36.7299C34.0007 36.3187 34.7682 35.7885 34.6875 35.7082C34.6648 35.6857 32.5627 36.4456 32.5303 36.4552C32.4689 36.4713 32.065 35.7885 31.9583 35.7532C31.947 35.75 32.0294 36.6319 31.9583 36.6689C31.6675 36.8135 30.9614 37.0609 30.7707 37.0866C30.6915 37.0962 30.2989 36.3476 30.2973 36.3588C30.2795 36.4745 30.2472 37.1139 30.1632 37.1942C30.0048 37.2569 29.4183 37.2553 28.591 37.2697C28.4423 37.2729 26.8701 37.3083 26.7473 36.934C26.7182 36.8456 26.7409 36.7685 26.8314 36.7428C27.0834 36.6689 29.1242 36.0247 29.4199 35.8978C29.5459 35.8431 31.3783 35.0977 31.5221 34.7427C31.5334 34.7121 30.1745 35.1684 30.1454 35.1154C30.1276 35.0832 29.7091 34.5161 29.6445 34.5643C29.5734 34.6174 29.6138 35.1395 29.6623 35.2744C29.6752 35.3098 28.4827 35.5491 27.392 35.5941C26.1786 35.6439 25.0023 35.2327 24.8003 35.1507C24.7017 35.1106 24.4965 34.7957 24.818 34.7427C25.4418 34.6398 26.1947 34.6366 27.392 34.4053C27.8833 34.3105 29.394 33.7723 29.3488 33.6486C29.3343 33.6101 29.0127 33.6502 27.8784 33.8141C27.6328 33.8494 26.4403 33.9378 25.9265 33.9249C25.9006 33.9249 25.7455 32.9723 25.668 32.8807C25.626 32.8711 25.306 33.7707 25.2382 33.9185C25.2058 33.9892 21.8546 33.88 21.8385 33.8189C21.8272 33.7755 21.6656 32.9932 21.6656 32.9482C21.6656 32.8839 21.281 33.8061 21.2325 33.8061C19.0981 33.8061 17.66 32.9321 17.4935 32.7538C17.4596 32.7184 17.2253 32.3281 17.6713 32.3682C17.9234 32.3907 20.0659 32.3457 21.6203 32.222C24.1507 32.0437 24.6209 31.7304 24.3899 31.7063C23.8534 31.6533 22.0324 31.618 21.7803 31.6003C21.7577 31.5987 21.5169 30.5448 21.4943 30.5705C21.3715 30.7055 21.1711 31.3931 21.029 31.5473C20.9191 31.5618 19.2402 31.4686 19.0447 31.4589C18.9753 31.4557 18.9058 30.5047 18.8848 30.5095C18.8088 30.5255 18.5616 31.3802 18.455 31.4059C18.4049 31.3931 16.0894 31.0878 16.0781 31.0862C13.8628 30.5866 13.5041 30.2605 13.3619 30.1978C13.1228 30.0934 12.8707 29.6291 13.4685 29.6307C13.5946 29.6307 15.8842 29.7624 16.6178 29.7624C19.83 29.7624 19.439 29.2628 19.4051 29.2564C19.2984 29.2355 19.0803 29.2966 17.8458 29.221C17.8006 29.2178 16.3059 29.1343 16.3092 29.0973C16.314 29.017 16.2817 28.2716 16.2752 28.278C16.1912 28.3551 15.8583 28.964 15.826 29.0267C15.8066 29.0668 14.6158 28.9383 14.6287 28.8853C14.6546 28.7857 14.5851 28.0901 14.5738 28.0997C14.4461 28.2057 14.1585 28.858 14.0745 28.8499C13.6657 28.8098 13.5881 28.8114 12.3229 28.5479C11.7542 28.429 11.0804 28.1399 10.6893 27.8169C10.3743 27.5583 10.6926 27.4474 10.7944 27.4201C10.8687 27.4009 17.8458 27.5535 18.1932 26.8064C18.2498 26.686 17.0347 26.7968 15.763 26.8418C15.6822 26.845 12.9208 26.7711 12.8659 26.7599C12.819 26.7502 12.735 25.8731 12.6978 25.8939C12.6348 25.9293 12.3359 26.6795 12.3019 26.7197C12.2599 26.7695 11.9303 26.755 11.4843 26.7004C11.4229 26.6924 11.4617 25.9389 11.4375 25.947C11.4375 25.947 11.1288 26.4594 11.0012 26.6137C10.9673 26.6554 11.5312 26.7293 9.16078 26.2024C8.31894 26.016 7.46741 25.6594 6.90833 25.261C6.72251 25.1276 6.92611 24.8352 7.24765 24.8352C7.41085 24.8352 10.4179 24.8481 12.4021 24.6762C16.0829 24.3565 15.317 24.1476 15.351 24.1428C15.7549 24.0898 14.821 24.0288 14.5269 23.9629C14.3928 23.9324 12.3456 23.4456 12.331 23.4327C12.3084 23.4103 12.3504 22.3724 12.3084 22.3773C12.2405 22.3853 11.7849 23.3026 11.7315 23.3364C11.6104 23.4119 10.127 23.0616 9.89921 22.9701C9.86528 22.9556 10.0042 22.1556 9.94768 22.1507C9.87659 22.1443 9.41123 22.7837 9.32398 22.8239C9.2852 22.8415 6.67565 22.0527 5.35069 21.3539C4.43936 20.8736 5.10185 20.5715 5.51227 20.6422C5.56882 20.6519 7.06668 20.8382 10.8913 20.9266C13 20.9764 14.3621 20.6021 14.5899 20.5362C14.9454 20.4318 14.3217 20.3996 13.8386 20.2518C13.8256 20.2438 13.2149 20.1635 12.2066 19.8984C12.0838 19.8663 12.2292 18.973 12.1403 18.9554C12.0515 18.9377 11.5506 19.7153 11.4052 19.6719C11.0384 19.561 10.6376 19.4293 10.2094 19.2751C9.42254 18.9907 7.8552 18.2726 7.86813 18.1907C7.88105 18.1087 8.09434 17.4468 8.05233 17.4356C7.97316 17.4147 7.43347 18.0348 7.42216 18.03C7.20887 17.9368 5.0453 16.4749 4.67043 15.9158C4.2487 15.2877 4.83201 15.2909 4.95643 15.3294C8.91195 16.552 11.7283 16.899 11.8495 16.9295C12.1323 17.0002 14.4978 17.2476 14.3443 17.1175C14.2377 17.0275 13.2472 16.5825 13.2472 16.4845C13.2472 16.3946 13.6285 15.4821 13.5687 15.4724C13.4621 15.4548 12.9612 16.0588 12.7641 16.1472C12.6606 16.1938 10.901 15.1174 10.7621 15.0451C10.5051 14.9118 8.64695 13.4546 8.68896 13.3566C8.73259 13.2538 9.16401 12.7028 9.101 12.6546C9.08484 12.6417 8.38519 13.0048 8.36742 13.0723C8.34964 13.1398 7.97477 12.8233 7.17009 11.5445C7.04729 11.3501 7.0279 10.7444 7.56274 11.0111C7.64191 11.0513 8.00709 11.2794 8.13312 11.334C8.37549 11.4401 9.23672 12.155 10.8946 12.8763C10.9156 12.8859 13.4007 14.335 13.5316 14.1728C13.5736 14.1213 11.8333 12.6096 11.7089 12.0056C11.6944 11.9381 12.0757 11.3035 12.066 11.2955C12.024 11.2585 11.3551 11.62 11.3147 11.5798C10.9576 11.2248 10.3856 9.44797 10.3856 9.18129C10.3856 9.10096 10.4486 8.80857 10.7071 8.93228C10.7911 8.97244 10.8865 9.0367 10.9414 9.1106C11.166 9.42387 13.126 11.3597 13.4233 11.6505C13.7723 11.9911 15.3526 13.4273 16.3899 13.9253C16.1928 13.5703 15.1135 11.4176 15.0634 11.2778C15.0052 11.1171 14.9196 10.979 14.8598 10.8183C14.8371 10.7573 15.4609 10.4151 15.4609 10.3717C15.4609 10.301 14.8371 10.4279 14.7467 10.4071C14.6756 10.391 14.5786 10.007 14.5269 9.88012C14.4251 9.63433 14.2199 8.47602 14.3249 8.36517C14.5625 8.11616 14.6045 8.29609 15.1878 9.02706C15.5449 9.47367 18.6295 14.1744 22.5979 17.4436C28.2517 22.1025 31.1585 22.7484 31.0179 22.6504C30.3215 22.17 29.6025 21.4648 29.5879 21.3716C29.5702 21.2463 29.9709 20.6053 29.9014 20.5314C29.8739 20.5041 29.2922 20.9716 29.2664 20.9442C29.2405 20.9169 29.108 20.782 28.8737 20.5539C28.2581 19.9578 27.6247 18.4686 27.5359 17.8485C27.5229 17.7553 27.7362 17.6091 27.8703 17.7023C27.9269 17.7408 30.3215 19.9562 30.9129 20.3948C31.2765 20.6647 32.6564 21.5611 32.8697 21.6029C33.049 21.6383 32.2815 20.994 30.7513 19.5144C29.4845 18.2903 28.368 16.9906 28.3599 16.9745C28.3389 16.9295 28.856 16.5488 28.856 16.401C28.856 16.3817 28.2016 16.6195 28.145 16.6275C28.0642 16.6404 27.5536 15.7022 27.3549 15.3744C26.6827 14.274 26.5017 13.5462 26.4985 13.1912C26.4985 13.1269 26.5308 13 26.6084 12.9695C26.6536 12.9518 26.6746 12.9486 26.7215 12.963C26.8314 12.9984 30.1066 16.5054 30.6188 16.9826C31.2135 17.5368 32.309 18.3818 32.8648 18.7754C33.1104 18.9506 33.2478 18.9811 33.1928 18.9538C33.1734 18.9441 32.4916 18.2405 31.6513 17.3681C31.5786 17.2926 32.0941 16.6484 32.0391 16.5954C31.9648 16.5215 31.2894 17.042 31.2151 16.9633C30.9145 16.642 30.6043 16.303 30.3037 15.9624C28.9255 14.3928 27.7427 12.7719 27.7798 12.7349C27.8461 12.669 28.3082 12.2963 28.2807 12.2305C28.25 12.155 27.5892 12.4506 27.5698 12.3911C27.5633 12.3686 26.7053 11.2585 26.8297 11.175C26.9348 11.1059 27.4163 10.775 27.3953 10.6721C27.3807 10.6079 26.7247 10.9115 26.6585 10.8183C26.5389 10.6513 25.8651 9.29053 25.8829 8.27681C25.8829 8.24308 25.9087 7.98925 25.9184 7.95712C25.9362 7.89768 26.0008 7.71293 26.1624 7.84627C26.2367 7.90731 28.4003 10.5725 28.4876 10.6786C28.6492 10.8713 29.9337 12.4409 31.0002 13.4964C33.0668 15.5431 33.4772 15.6861 33.5128 15.6154C33.5532 15.5367 31.6788 13.5944 31.7079 13.3582C31.7144 13.302 32.3558 12.4393 32.3332 12.4072C32.309 12.3734 31.4106 12.7558 31.3508 12.8072C31.2942 12.8538 30.9194 12.2192 30.761 12.0425C30.6576 11.9622 31.3492 11.2537 31.3605 11.2344C31.4057 11.1493 30.4572 11.6087 30.4039 11.5461C29.0822 9.9476 28.5005 8.73789 28.3308 8.50815C28.242 8.38927 29.0337 7.76273 28.9772 7.67276C28.9174 7.57958 28.1159 8.06315 28.0804 8.0278C27.9511 7.89928 27.5359 7.04622 27.4793 6.94501C27.4227 6.84219 28.2032 6.35702 28.166 6.27348C28.1337 6.19958 27.3533 6.56105 27.3129 6.4743C27.0317 5.86703 27.0414 5.88792 26.757 5.01718C26.5276 4.31995 26.5066 3.36407 26.6698 3.04919C26.7635 2.86926 26.9332 2.84195 27.0333 2.96405C27.1545 3.11024 29.9063 7.04622 30.2488 7.51372C31.102 8.67845 32.923 10.8264 33.083 10.693C33.1524 10.6352 31.207 7.76112 31.2959 7.67276C31.3152 7.65348 32.0844 6.83255 32.0714 6.8197C32.044 6.79239 31.1262 7.31611 31.0987 7.2631C31.0713 7.21008 29.8869 5.00594 29.8659 4.91758C29.8449 4.83243 30.6366 4.16733 30.5962 4.07415C30.5704 4.0131 29.6687 4.46454 29.651 4.41955C28.7574 2.19934 28.919 1.43464 28.8818 0.918942C28.8689 0.722946 28.9578 0.411281 29.0014 0.221711C29.0256 0.118894 29.1856 -0.0771022 29.3456 0.0482065C29.3908 0.0819435 29.5104 0.237776 29.5427 0.297218C36.2984 12.7703 41.204 15.7295 42.8393 16.8749C43.7748 17.5304 45.1418 18.4059 46.5379 19.8598C48.1359 21.5242 48.3072 24.8176 49.4334 27.7495C49.8745 28.8997 51.4871 32.0566 51.5243 32.0485C51.8814 31.9778 53.5182 30.3344 54.6767 28.5752C55.4863 27.3462 55.9855 26.4161 55.9193 25.963C54.1774 27.2595 53.494 25.4297 52.1803 26.363C52.1399 26.392 52.0446 26.3534 52.106 26.2426C52.3112 25.8731 52.5632 25.3799 53.5279 25.1292C53.99 25.0104 54.4796 25.1935 55.3166 24.922C55.6737 24.8063 55.8272 24.4079 55.8401 24.3758C55.8498 24.3501 55.5396 24.5236 55.1728 24.5862C54.7608 24.6553 54.3019 24.6987 54.2889 24.7003C53.5747 24.7533 52.985 24.5637 52.4275 24.3276C52.0995 24.1894 51.6535 23.828 51.4613 23.7107C51.0024 23.4295 50.1024 23.407 49.8325 23.4729C49.805 23.4793 49.6483 23.489 49.7016 23.3701C49.7129 23.3444 50.0603 23.06 50.1848 23.0006C50.5402 22.8287 51.3045 22.6311 51.9993 22.9283C54.478 23.987 54.8852 23.2046 54.8577 23.1902C54.6961 23.1018 53.9108 22.9588 53.2855 22.7821C52.8573 22.66 52.7151 22.5941 52.106 22.3387C51.8232 22.2198 51.3562 21.5724 50.676 21.4503C49.9957 21.3282 49.2928 21.3587 49.1119 21.3266C49.0585 21.317 49.0343 21.2222 49.0779 21.1868C49.1652 21.1145 49.6144 20.5844 51.1575 20.7595C51.9444 20.8479 54.1774 21.5869 54.339 21.6077C54.8949 21.6816 52.4081 20.7354 52.3726 20.7241C51.0137 20.2438 50.1137 19.5434 49.9068 19.3201C49.3025 18.6726 49.267 18.332 49.2072 18.173C49.1716 18.0782 49.0488 17.6348 49.044 17.5336C49.0375 17.3569 49.0101 17.0613 49.1393 17.2637C49.1636 17.3007 50.1767 18.3288 50.4772 18.5039C53.2241 20.1024 56.152 19.4727 55.8385 19.41C55.4362 19.3297 52.8476 19.0502 51.576 18.1039C50.3043 17.1577 50.0361 16.6372 48.7758 15.6652C48.4203 15.3905 47.8628 15.2861 47.5558 15.1961C47.3264 15.1961 47.0969 15.1624 46.8675 15.1881C46.7883 15.1961 46.7075 15.2025 46.6283 15.2025C46.6122 15.2025 46.5912 15.1784 46.5831 15.1592C46.575 15.1399 46.5718 15.1126 46.5815 15.0949C46.6445 14.976 47.4282 14.7158 48.0406 14.7415C48.2813 14.7511 48.5156 14.7848 48.7564 14.8186C49.2605 14.8877 49.8503 15.0644 50.4498 15.278L52.2675 16.0347ZM68.2415 32.8839C67.9458 33.0462 67.2316 33.5876 66.5336 34.1209C66.0779 34.4679 65.2959 35.313 65.3007 35.3467C65.2733 35.6937 65.2426 35.9251 65.1941 36.2528C65.1553 36.5114 64.6996 37.3308 64.7659 37.3725C64.8241 37.4095 66.0989 38.5405 66.1603 38.5726C66.2718 38.6305 66.8616 39.3566 66.965 39.4257C67.0765 39.5012 67.4029 39.8867 67.6081 40.0651C67.7503 40.1888 68.4063 38.902 68.4128 38.812C68.4758 38.2433 68.3239 36.9372 68.3239 36.4938C68.3061 35.9604 68.4257 34.9033 68.4306 34.823C68.4419 34.6302 68.5291 32.9193 68.2431 32.8839H68.2415ZM68.9622 19.606C69.0268 19.598 69.0931 19.606 69.1448 19.5819C69.4194 19.4566 69.7184 19.4373 70.0092 19.3795C70.1239 19.357 70.1595 19.2478 70.0771 19.161C70.0092 19.0903 69.9414 19.0164 69.8622 18.9602C69.7006 18.8461 69.5132 18.7626 69.3694 18.6325C69.1448 18.4284 68.8749 18.3995 68.5986 18.3802C68.5178 18.3738 68.45 18.4188 68.4079 18.4959C68.3498 18.6035 68.3191 18.7112 68.3514 18.8349C68.3983 19.0052 68.4354 19.1787 68.4823 19.349C68.5162 19.4743 68.6067 19.5466 68.7343 19.5723C68.8119 19.5867 68.8911 19.5964 68.9638 19.6076L68.9622 19.606ZM67.5532 18.369C67.4352 18.2228 67.1993 18.1826 67.0119 18.2019C66.9149 18.2115 66.8471 18.3353 66.8988 18.4172C67.0652 18.679 67.2429 18.9313 67.4627 19.1546C67.516 19.2076 67.6114 19.1819 67.6453 19.0967C67.6808 19.0068 67.6517 18.4895 67.5548 18.369H67.5532ZM72.0791 25.6016C72.1146 25.5983 72.1534 25.6064 72.1825 25.5903C72.315 25.5228 72.3942 25.4072 72.4362 25.269C72.441 25.2545 72.4394 25.2337 72.4329 25.2192C72.3764 25.0682 72.2924 24.9365 72.1696 24.8288C72.1259 24.7903 72.0048 24.8208 71.9918 24.8818C71.9547 25.0521 71.9191 25.224 71.8868 25.3959C71.8674 25.4987 71.9579 25.5903 72.0775 25.6016H72.0791Z" fill="#1D1D1D"/>
</svg>
